<svg xmlns="http://www.w3.org/2000/svg" width="23.027" height="48.375" viewBox="0 0 23.027 48.375">
  <g id="Group_16" data-name="Group 16" transform="translate(-4714.62 -2289)">
    <g id="Group_1" data-name="Group 1" transform="translate(4717.23 2289)">
      <path id="Path_2" data-name="Path 2" d="M183.064,161.1l-.143-1.221a2.2,2.2,0,0,1,1.964-2.441,2.2,2.2,0,0,1,2.385,1.813c.07.4.138.8.205,1.183a3.443,3.443,0,1,0-4.411.666Z" transform="translate(-181.435 -154.727)" fill="#2a68ac"/>
    </g>
    <path id="Path_1" data-name="Path 1" d="M184.243,222.81l-1.936-7.859a12.284,12.284,0,0,1-.007-5.824l1.61-6.606a6.306,6.306,0,0,0-.113-3.42,12.266,12.266,0,0,0-2.614-4.64,3.173,3.173,0,0,0-2.581-1.048,4.557,4.557,0,0,0-3.337-2.546,3.753,3.753,0,0,0-1.935-1.5,2.549,2.549,0,0,0-1.523.047c-.469-2.292-1.047-5.37-1.737-9.377a2.2,2.2,0,0,0-3.879-1,2.181,2.181,0,0,0-.47,1.632c.275,2.35.89,7.6,1.348,11.385-1.932.406-2.938,3.675-3.544,5.647-.042.137-.082.266-.119.385l-1.161,3.706a5.171,5.171,0,0,0,0,3.115,24.367,24.367,0,0,0,5,8.741,3.99,3.99,0,0,1,.889,1.669l1.994,7.771a.574.574,0,0,0,1.112-.285l-1.994-7.771a5.142,5.142,0,0,0-1.147-2.151,23.2,23.2,0,0,1-4.76-8.319,4.029,4.029,0,0,1,0-2.427l1.161-3.706c.038-.121.078-.252.121-.391.45-1.464,1.368-4.446,2.587-4.837.035.283.068.555.1.809.552,4.451-1.114,6.687-1.131,6.71a.574.574,0,0,0,.906.7c.081-.1,1.979-2.595,1.364-7.556-.453-3.652-1.26-10.541-1.587-13.334a1.05,1.05,0,0,1,.938-1.166,1.053,1.053,0,0,1,1.139.866c1.1,6.407,2.576,14.27,3.331,15.34a.574.574,0,1,0,.938-.662,21.953,21.953,0,0,1-1.163-4.359,1.456,1.456,0,0,1,.972-.08,2.787,2.787,0,0,1,1.41,1.208l.97,1.94a.574.574,0,0,0,1.027-.514l-.413-.825a3.852,3.852,0,0,1,1.621,1.755h0l.123.3.037.1h0l.705,1.719a.574.574,0,1,0,1.062-.436l-.472-1.151a2,2,0,0,1,1.243.662l.012.013a11.114,11.114,0,0,1,2.358,4.2,5.159,5.159,0,0,1,.09,2.8l-1.61,6.606a13.439,13.439,0,0,0,.008,6.371l1.936,7.859a.574.574,0,1,0,1.115-.275Z" transform="translate(4552.995 2113.479)" fill="#2c2738" stroke="#2c2738" stroke-width="0.75"/>
  </g>
</svg>
