<svg xmlns="http://www.w3.org/2000/svg" width="48" height="48" viewBox="0 0 48 48">
  <g id="Group_80" data-name="Group 80" transform="translate(-4896 -2289)">
    <g id="computer-mouse-with-long-cable" transform="translate(4917.373 2289) rotate(45)">
      <path id="Path_8" data-name="Path 8" d="M34.623,12.518,27.35,5.245a8.48,8.48,0,0,0-11.979,0l-.744.744-4.6-4.6A4.748,4.748,0,0,0,3.311,8.1l2.449,2.449a3.044,3.044,0,0,1-4.3,4.3A.852.852,0,0,0,.25,16.062,4.748,4.748,0,0,0,6.964,9.347L4.515,6.9a3.044,3.044,0,0,1,4.3-4.3l4.6,4.6-.744.744a8.481,8.481,0,0,0,0,11.98l7.273,7.273A10.376,10.376,0,0,0,34.623,12.518ZM33.418,25.986a8.681,8.681,0,0,1-12.263,0l-7.273-7.273a6.774,6.774,0,0,1,0-9.569L16.576,6.45a6.774,6.774,0,0,1,9.569,0l7.273,7.273A8.681,8.681,0,0,1,33.418,25.986Z" transform="translate(0 0)" fill="#2c2738"/>
      <path id="Path_9" data-name="Path 9" d="M10.351.249,5.9,4.7,1.455.249A.852.852,0,0,0,.25,1.455L4.7,5.9.25,10.351a.852.852,0,1,0,1.205,1.205l10.1-10.1A.852.852,0,1,0,10.351.249Z" transform="translate(15.458 8.026)" fill="#2c2738"/>
    </g>
    <path id="Path_10" data-name="Path 10" d="M6.036,4.244,1.8,8.549A5.639,5.639,0,0,1,0,4.329,6.109,6.109,0,0,1,1.825,0Z" transform="translate(4931.843 2310.813) rotate(135)" fill="#2a68ac"/>
  </g>
</svg>
