<svg xmlns="http://www.w3.org/2000/svg" width="34.942" height="48.375" viewBox="0 0 34.942 48.375">
  <g id="Group_14" data-name="Group 14" transform="translate(-5103.606 -2289)">
    <g id="Group_4" data-name="Group 4" transform="translate(5110.001 2289)">
      <path id="Path_5" data-name="Path 5" d="M679.157,1433.117l-.244-1.589a1.778,1.778,0,0,1,1.439-2.027,2.274,2.274,0,0,1,2.664,1.739q.127.562.254,1.112a3.453,3.453,0,1,0-4.112.765Z" transform="translate(-677.257 -1426.58)" fill="#2a68ac"/>
    </g>
    <path id="Path_3" data-name="Path 3" d="M656.78,1471.391c-.651-1.169-1.952-2.581-5.727-1.351a14.036,14.036,0,0,0-2.94,1.368c-.754.459-1.4.891-1.976,1.272-2.365,1.572-2.852,1.772-3.675.764-.879-1.076-3.019-8.769-5.584-20.077a2.274,2.274,0,0,0-2.664-1.739,1.778,1.778,0,0,0-1.439,2.027l1.256,8.177a2.3,2.3,0,0,0-.822.033l-.418.093a2.306,2.306,0,0,0-1.771,1.844l-.19,1.048-.416.419a7.211,7.211,0,0,0-2.072,4.529l-.014.178a4.454,4.454,0,0,0-2.425,2.724l-.361,1.152a9.331,9.331,0,0,0,.307,6.407l1.756,4.163a11.721,11.721,0,0,1,.83,6l-.7,5.641a.576.576,0,1,0,1.142.142l.7-5.641a12.872,12.872,0,0,0-.912-6.586l-1.756-4.162a8.179,8.179,0,0,1-.269-5.616l.361-1.152a3.3,3.3,0,0,1,1.222-1.688l-.017.228a.575.575,0,0,0,.53.618l.044,0a.575.575,0,0,0,.573-.532l.088-1.149a.571.571,0,0,0,.016-.207l.033-.43a6.058,6.058,0,0,1,1.112-3.058,15.691,15.691,0,0,0,.075,2.593l.187,1.657a.576.576,0,0,0,.571.511.589.589,0,0,0,.065,0,.576.576,0,0,0,.507-.636l-.187-1.657a14.547,14.547,0,0,1,.141-4.224l.192-1.06a1.157,1.157,0,0,1,.889-.925l.418-.094a1.157,1.157,0,0,1,.762.091l.752,4.9a.576.576,0,1,0,1.138-.175l-2.2-14.322a.634.634,0,0,1,.517-.722,1.129,1.129,0,0,1,1.326.863c1.575,6.945,4.426,18.85,5.815,20.55a2.263,2.263,0,0,0,2.448.97,9.929,9.929,0,0,0,2.756-1.5c.564-.375,1.2-.8,1.938-1.247a12.881,12.881,0,0,1,2.7-1.256c3.31-1.079,4.022.2,4.365.817a.073.073,0,0,1,0,.064.081.081,0,0,1-.051.049c-2.8.943-5.915,3.715-7.52,5.284a16.659,16.659,0,0,0-2.144,2.568l-3.223,4.76a7.511,7.511,0,0,0-1.288,3.938l-.276,7.5a.575.575,0,0,0,.554.6h.022a.576.576,0,0,0,.575-.554l.277-7.5a6.36,6.36,0,0,1,1.091-3.335l3.223-4.76a15.511,15.511,0,0,1,2-2.391c1.534-1.5,4.495-4.146,7.082-5.016a1.232,1.232,0,0,0,.686-1.764Z" transform="translate(4478.882 840.294)" fill="#2c2738" stroke="#2c2738" stroke-width="0.75"/>
    <g id="Group_3" data-name="Group 3" transform="translate(5132.227 2308.338)">
      <path id="Path_4" data-name="Path 4" d="M873.212,1594.58a3.45,3.45,0,0,0-2.867,1.529,3.342,3.342,0,0,1,3.435,1.818,1.232,1.232,0,0,1-.686,1.764,10.807,10.807,0,0,0-2.084,1,3.453,3.453,0,1,0,2.2-6.112Z" transform="translate(-870.345 -1594.58)" fill="#2a68ac"/>
    </g>
    <path id="Path_6" data-name="Path 6" d="M746.761,1484.472a.978.978,0,0,0,1.056.895h0a.978.978,0,0,0,.895-1.056l-.095-1.145,3.186,2.7a.978.978,0,1,0,1.265-1.493l-3.186-2.7,1.145-.094a.978.978,0,1,0-.161-1.95l-4.474.369Z" transform="translate(4371.567 815.481)" fill="#2a68ac"/>
    <path id="Path_7" data-name="Path 7" d="M815.792,1535.59a.978.978,0,0,0-1.046-.905h0a.978.978,0,0,0-.905,1.046l.083,1.146-3.158-2.732a.978.978,0,0,0-1.28,1.48l3.158,2.732-1.146.083a.978.978,0,1,0,.141,1.952l4.477-.324Z" transform="translate(4316.037 767.448)" fill="#2a68ac"/>
  </g>
</svg>
